<svg xmlns="http://www.w3.org/2000/svg" viewBox="0 0 64 64"><defs><style>.cls-1{fill:#74d800;}.cls-2{fill:#5dad00;}</style></defs><title>Veg Cucumber</title><g id="Layer_2" data-name="Layer 2"><g id="Layer_1-2" data-name="Layer 1"><path class="cls-1" d="M12,64a12,12,0,0,1-5.7-22.57A86.19,86.19,0,0,0,41.44,6.31,12,12,0,1,1,62.57,17.69,110.1,110.1,0,0,1,17.69,62.57,11.94,11.94,0,0,1,12,64Z"/><circle class="cls-1" cx="8" cy="40" r="2"/><circle class="cls-1" cx="28" cy="56" r="2"/><circle class="cls-1" cx="26" cy="28" r="2"/><circle class="cls-1" cx="4" cy="60" r="2"/><circle class="cls-1" cx="38" cy="48" r="2"/><circle class="cls-1" cx="38" cy="12" r="2"/><circle class="cls-2" cx="40" cy="34" r="2"/><circle class="cls-2" cx="44" cy="4" r="2"/><circle class="cls-2" cx="18" cy="62" r="2"/><circle class="cls-2" cx="24" cy="38" r="2"/><circle class="cls-2" cx="2" cy="48" r="2"/><circle class="cls-2" cx="54" cy="16" r="2"/></g></g></svg>