<?xml version="1.0" encoding="UTF-8" standalone="no"?>
<!-- Created with Inkscape (http://www.inkscape.org/) -->

<svg
   xmlns:dc="http://purl.org/dc/elements/1.1/"
   xmlns:cc="http://creativecommons.org/ns#"
   xmlns:rdf="http://www.w3.org/1999/02/22-rdf-syntax-ns#"
   xmlns:svg="http://www.w3.org/2000/svg"
   xmlns="http://www.w3.org/2000/svg"
   xmlns:sodipodi="http://sodipodi.sourceforge.net/DTD/sodipodi-0.dtd"
   xmlns:inkscape="http://www.inkscape.org/namespaces/inkscape"
   width="9.3136005mm"
   height="8.6051168mm"
   viewBox="0 0 9.3136011 8.605116"
   version="1.1"
   id="svg5889"
   inkscape:version="0.92.3 (2405546, 2018-03-11)"
   sodipodi:docname="vegetables-food-berenjena.svg">
  <defs
     id="defs5883">
    <clipPath
       clipPathUnits="userSpaceOnUse"
       id="clipPath2482">
      <path
         d="m 82.4526,204.093 h 5.0166 v -2.828 h -5.0166 z"
         id="path2480"
         inkscape:connector-curvature="0" />
    </clipPath>
  </defs>
  <sodipodi:namedview
     id="base"
     pagecolor="#ffffff"
     bordercolor="#666666"
     borderopacity="1.0"
     inkscape:pageopacity="0.0"
     inkscape:pageshadow="2"
     inkscape:zoom="3.06"
     inkscape:cx="56.639902"
     inkscape:cy="8.6716551"
     inkscape:document-units="mm"
     inkscape:current-layer="layer1"
     showgrid="false"
     fit-margin-top="1"
     fit-margin-bottom="1"
     fit-margin-right="1"
     fit-margin-left="1"
     inkscape:window-width="1853"
     inkscape:window-height="1025"
     inkscape:window-x="67"
     inkscape:window-y="27"
     inkscape:window-maximized="1" />
  <metadata
     id="metadata5886">
    <rdf:RDF>
      <cc:Work
         rdf:about="">
        <dc:format>image/svg+xml</dc:format>
        <dc:type
           rdf:resource="http://purl.org/dc/dcmitype/StillImage" />
        <dc:title></dc:title>
      </cc:Work>
    </rdf:RDF>
  </metadata>
  <g
     inkscape:label="Capa 1"
     inkscape:groupmode="layer"
     id="layer1"
     transform="translate(-90.847361,-115.15191)">
    <g
       transform="matrix(0.35277777,0,0,-0.35277777,63.450986,191.6352)"
       id="g10856">
      <g
         transform="translate(98.814,211.9932)"
         id="g2468">
        <path
           inkscape:connector-curvature="0"
           id="path2470"
           style="fill:#36215c;fill-opacity:1;fill-rule:nonzero;stroke:none"
           d="m 0,0 c 0.285,-0.463 0.428,-1.012 0.387,-1.573 0,0 0,-0.004 -0.001,-0.012 0,-0.004 -0.001,-0.011 -0.001,-0.016 C 0.383,-1.61 0.383,-1.622 0.381,-1.636 0.374,-1.683 0.365,-1.756 0.352,-1.848 0.33,-2.013 0.298,-2.233 0.249,-2.51 0.2,-2.784 0.136,-3.112 0.049,-3.484 0.006,-3.672 -0.045,-3.868 -0.099,-4.076 -0.158,-4.282 -0.215,-4.501 -0.288,-4.726 -0.423,-5.178 -0.6,-5.662 -0.802,-6.175 -0.855,-6.303 -0.911,-6.432 -0.967,-6.562 -0.995,-6.628 -1.023,-6.694 -1.052,-6.758 -1.082,-6.825 -1.113,-6.89 -1.144,-6.957 -1.207,-7.089 -1.271,-7.225 -1.334,-7.359 -1.405,-7.493 -1.476,-7.63 -1.547,-7.766 -1.686,-8.043 -1.854,-8.313 -2.015,-8.592 -2.1,-8.729 -2.191,-8.865 -2.28,-9.004 -2.371,-9.142 -2.459,-9.282 -2.56,-9.419 -2.659,-9.555 -2.759,-9.692 -2.859,-9.832 -2.959,-9.97 -3.072,-10.1 -3.18,-10.236 l -0.163,-0.202 c -0.054,-0.069 -0.112,-0.135 -0.172,-0.202 l -0.355,-0.39 c -0.117,-0.132 -0.247,-0.255 -0.374,-0.381 -0.129,-0.124 -0.258,-0.25 -0.386,-0.374 -0.136,-0.117 -0.272,-0.233 -0.407,-0.351 -0.139,-0.116 -0.273,-0.237 -0.418,-0.343 -0.144,-0.108 -0.288,-0.215 -0.431,-0.323 -0.072,-0.052 -0.143,-0.108 -0.217,-0.157 -0.075,-0.051 -0.149,-0.097 -0.223,-0.145 -0.15,-0.1 -0.299,-0.195 -0.446,-0.292 l -0.112,-0.068 -0.114,-0.067 c -0.077,-0.04 -0.153,-0.086 -0.229,-0.126 -0.152,-0.084 -0.303,-0.167 -0.454,-0.249 -0.151,-0.085 -0.304,-0.151 -0.455,-0.222 -0.154,-0.07 -0.304,-0.14 -0.453,-0.207 -0.149,-0.074 -0.3,-0.125 -0.448,-0.185 -0.149,-0.054 -0.296,-0.111 -0.44,-0.166 -0.073,-0.027 -0.146,-0.053 -0.217,-0.08 -0.072,-0.025 -0.143,-0.046 -0.214,-0.068 -0.284,-0.087 -0.56,-0.168 -0.826,-0.248 -0.266,-0.068 -0.519,-0.125 -0.763,-0.178 -0.122,-0.029 -0.24,-0.054 -0.356,-0.082 -0.115,-0.021 -0.225,-0.036 -0.334,-0.054 -0.216,-0.035 -0.419,-0.066 -0.606,-0.097 -0.096,-0.014 -0.185,-0.028 -0.272,-0.039 -0.085,-0.009 -0.166,-0.017 -0.243,-0.026 -0.614,-0.057 -0.97,-0.087 -0.97,-0.087 l -0.119,-0.007 c -1.004,-0.082 -1.962,0.153 -2.777,0.616 0.972,-1.145 2.461,-1.823 4.073,-1.697 l 0.119,0.01 c 0,0 0.357,0.029 0.972,0.087 0.076,0.008 0.157,0.016 0.242,0.024 0.087,0.013 0.177,0.027 0.271,0.04 0.188,0.031 0.39,0.063 0.606,0.098 0.108,0.017 0.219,0.034 0.334,0.054 0.116,0.027 0.234,0.053 0.357,0.081 0.244,0.056 0.497,0.11 0.762,0.179 0.267,0.078 0.543,0.161 0.827,0.249 0.07,0.02 0.142,0.043 0.214,0.065 0.071,0.028 0.144,0.055 0.216,0.08 0.145,0.056 0.292,0.114 0.441,0.167 0.148,0.061 0.298,0.112 0.447,0.183 0.149,0.07 0.3,0.14 0.453,0.209 0.151,0.072 0.306,0.138 0.456,0.222 0.15,0.082 0.301,0.165 0.454,0.249 0.076,0.043 0.152,0.086 0.228,0.129 l 0.114,0.063 0.111,0.07 c 0.148,0.096 0.297,0.192 0.448,0.288 0.073,0.049 0.148,0.1 0.223,0.147 0.074,0.051 0.144,0.107 0.217,0.159 0.143,0.107 0.287,0.214 0.431,0.323 0.145,0.105 0.279,0.227 0.417,0.341 0.135,0.116 0.272,0.235 0.408,0.352 0.128,0.127 0.256,0.252 0.385,0.374 0.128,0.125 0.258,0.249 0.375,0.381 l 0.355,0.393 c 0.06,0.065 0.117,0.13 0.17,0.199 l 0.166,0.203 c 0.108,0.135 0.22,0.266 0.32,0.405 0.1,0.138 0.199,0.273 0.298,0.412 0.1,0.134 0.191,0.274 0.281,0.414 0.089,0.139 0.179,0.277 0.265,0.413 0.16,0.278 0.329,0.552 0.468,0.825 0.071,0.136 0.142,0.272 0.211,0.405 0.065,0.136 0.129,0.272 0.191,0.406 0.032,0.064 0.063,0.132 0.094,0.195 0.028,0.068 0.056,0.135 0.084,0.199 0.055,0.131 0.111,0.26 0.165,0.387 0.201,0.512 0.379,0.997 0.514,1.449 0.073,0.225 0.13,0.444 0.189,0.65 0.053,0.208 0.105,0.405 0.147,0.592 0.088,0.372 0.152,0.7 0.201,0.977 0.048,0.273 0.081,0.494 0.102,0.659 0.013,0.094 0.023,0.164 0.03,0.211 0.002,0.015 0.003,0.026 0.004,0.034 0,0.008 0.001,0.014 0.001,0.018 10e-4,0.008 10e-4,0.012 10e-4,0.012 C 1.766,-1.519 1.102,-0.425 0,0" />
      </g>
      <g
         transform="translate(84.417,196.3408)"
         id="g2472">
        <path
           inkscape:connector-curvature="0"
           id="path2474"
           style="fill:#532a7d;fill-opacity:1;fill-rule:nonzero;stroke:none"
           d="m 0,0 0.119,0.008 c 0,0 0.356,0.029 0.97,0.087 C 1.166,0.104 1.247,0.111 1.332,0.12 1.419,0.132 1.508,0.146 1.604,0.159 1.791,0.19 1.994,0.222 2.21,0.257 2.319,0.274 2.429,0.289 2.544,0.311 2.66,0.338 2.778,0.363 2.9,0.393 3.144,0.445 3.397,0.502 3.663,0.57 3.929,0.65 4.205,0.731 4.489,0.818 4.56,0.841 4.631,0.861 4.703,0.887 4.774,0.913 4.847,0.939 4.92,0.967 5.064,1.021 5.211,1.078 5.36,1.133 5.508,1.192 5.659,1.243 5.808,1.317 5.957,1.385 6.107,1.454 6.261,1.524 6.412,1.596 6.565,1.661 6.716,1.746 6.867,1.828 7.018,1.911 7.17,1.995 7.246,2.035 7.322,2.081 7.399,2.121 L 7.513,2.188 7.625,2.257 C 7.772,2.354 7.921,2.448 8.071,2.548 8.145,2.597 8.219,2.643 8.294,2.693 8.368,2.742 8.439,2.798 8.511,2.851 8.654,2.958 8.798,3.065 8.942,3.174 9.087,3.279 9.221,3.4 9.36,3.517 c 0.135,0.118 0.271,0.233 0.407,0.35 0.128,0.124 0.257,0.25 0.386,0.374 0.127,0.126 0.257,0.249 0.374,0.381 l 0.355,0.391 c 0.06,0.066 0.118,0.133 0.172,0.201 l 0.163,0.202 c 0.108,0.137 0.221,0.267 0.321,0.404 0.1,0.14 0.2,0.278 0.299,0.413 0.101,0.137 0.189,0.278 0.28,0.415 0.089,0.139 0.18,0.275 0.265,0.413 0.161,0.278 0.329,0.548 0.468,0.826 0.071,0.135 0.142,0.272 0.213,0.406 0.063,0.135 0.127,0.27 0.19,0.402 0.031,0.068 0.062,0.132 0.092,0.2 0.029,0.063 0.057,0.129 0.085,0.196 0.056,0.13 0.112,0.259 0.165,0.387 0.202,0.512 0.379,0.997 0.514,1.449 0.073,0.224 0.13,0.443 0.189,0.649 0.054,0.208 0.105,0.404 0.148,0.592 0.087,0.372 0.151,0.7 0.2,0.975 0.049,0.276 0.081,0.497 0.103,0.662 0.013,0.091 0.022,0.165 0.029,0.212 0.002,0.013 0.002,0.025 0.004,0.035 0,0.005 10e-4,0.011 10e-4,0.015 0.001,0.008 0.001,0.012 0.001,0.012 0.041,0.562 -0.102,1.11 -0.387,1.573 -0.032,0.011 -0.064,0.025 -0.096,0.036 -1.379,0.471 -2.88,-0.264 -3.35,-1.644 L 10.947,14.03 c 0,0 -0.002,-0.002 -0.004,-0.009 C 10.941,14.017 10.939,14.014 10.938,14.004 10.936,13.999 10.936,14.001 10.934,13.998 10.93,13.995 10.927,13.989 10.922,13.984 10.918,13.978 10.908,13.955 10.9,13.938 10.867,13.861 10.809,13.73 10.73,13.564 10.65,13.397 10.55,13.191 10.423,12.958 10.362,12.842 10.29,12.719 10.217,12.591 10.139,12.464 10.064,12.327 9.974,12.193 9.805,11.916 9.599,11.635 9.385,11.345 9.329,11.274 9.272,11.202 9.214,11.131 9.186,11.094 9.157,11.06 9.128,11.024 9.098,10.987 9.068,10.953 9.037,10.919 8.977,10.849 8.916,10.776 8.854,10.704 8.79,10.638 8.726,10.568 8.661,10.499 8.535,10.357 8.391,10.235 8.258,10.101 8.189,10.036 8.116,9.978 8.046,9.914 7.975,9.852 7.906,9.789 7.831,9.732 7.758,9.677 7.685,9.619 7.611,9.562 7.54,9.503 7.461,9.457 7.387,9.401 7.311,9.353 7.24,9.295 7.161,9.25 L 6.933,9.113 C 6.859,9.063 6.78,9.026 6.703,8.987 L 6.475,8.867 C 6.397,8.833 6.319,8.801 6.242,8.768 6.165,8.734 6.092,8.695 6.013,8.672 5.937,8.646 5.86,8.618 5.784,8.591 5.746,8.577 5.71,8.562 5.672,8.55 L 5.557,8.521 C 5.482,8.497 5.407,8.477 5.333,8.457 L 5.279,8.441 5.221,8.429 C 5.184,8.423 5.146,8.416 5.109,8.407 5.036,8.392 4.963,8.377 4.892,8.36 4.82,8.346 4.744,8.344 4.673,8.331 4.529,8.315 4.394,8.289 4.251,8.289 4.183,8.286 4.114,8.279 4.047,8.275 4.015,8.272 3.981,8.271 3.949,8.27 3.915,8.268 3.881,8.27 3.847,8.271 3.714,8.272 3.586,8.272 3.466,8.272 3.341,8.28 3.221,8.291 3.107,8.299 3.05,8.305 2.996,8.306 2.942,8.31 2.888,8.315 2.833,8.326 2.781,8.333 2.677,8.348 2.58,8.358 2.49,8.373 2.447,8.379 2.404,8.384 2.363,8.39 2.321,8.398 2.281,8.407 2.242,8.413 1.936,8.477 1.766,8.51 1.766,8.51 1.376,8.574 0.949,8.601 0.536,8.569 -2.128,8.358 -4.119,6.029 -3.908,3.365 -3.825,2.312 -3.411,1.366 -2.777,0.616 -1.962,0.153 -1.004,-0.082 0,0" />
      </g>
      <g
         id="g2476">
        <g
           id="g2478" />
        <g
           id="g2490">
          <g
             style="opacity:0.39999402"
             id="g2488"
             clip-path="url(#clipPath2482)">
            <g
               id="g2486"
               transform="translate(87.4668,202.8799)">
              <path
                 inkscape:connector-curvature="0"
                 id="path2484"
                 style="fill:#8a64aa;fill-opacity:1;fill-rule:nonzero;stroke:none"
                 d="m 0,0 c 0.062,-0.775 -1.01,-1.49 -2.394,-1.601 -1.383,-0.112 -2.555,0.427 -2.618,1.199 -0.061,0.774 1.01,1.49 2.394,1.6 C -1.234,1.31 -0.062,0.772 0,0" />
            </g>
          </g>
        </g>
      </g>
      <g
         transform="translate(100.1113,211.2842)"
         id="g2492">
        <path
           inkscape:connector-curvature="0"
           id="path2494"
           style="fill:#5a8e3f;fill-opacity:1;fill-rule:nonzero;stroke:none"
           d="m 0,0 c 0.133,-1.098 -0.649,-2.094 -1.747,-2.229 -1.097,-0.129 -2.094,0.651 -2.227,1.748 -0.132,1.097 0.649,2.096 1.747,2.228 C -1.13,1.878 -0.133,1.098 0,0" />
      </g>
      <g
         transform="translate(99.5693,211.4121)"
         id="g2496">
        <path
           inkscape:connector-curvature="0"
           id="path2498"
           style="fill:#6fa342;fill-opacity:1;fill-rule:nonzero;stroke:none"
           d="M 0,0 C -0.214,-0.025 -0.411,-0.099 -0.584,-0.202 -0.937,0.046 -1.379,0.172 -1.841,0.116 -1.88,0.109 -1.919,0.104 -1.958,0.094 -2.232,0.611 -2.802,0.932 -3.417,0.857 -4.214,0.761 -4.782,0.038 -4.686,-0.758 c 0.083,-0.685 0.628,-1.2 1.284,-1.272 0.178,-0.924 1.045,-1.57 1.996,-1.453 0.462,0.052 0.861,0.279 1.145,0.605 0.193,-0.06 0.401,-0.084 0.615,-0.059 0.811,0.1 1.389,0.837 1.291,1.647 C 1.547,-0.479 0.81,0.099 0,0" />
      </g>
      <g
         transform="translate(98.5693,210.665)"
         id="g2500">
        <path
           inkscape:connector-curvature="0"
           id="path2502"
           style="fill:#6fa342;fill-opacity:1;fill-rule:nonzero;stroke:none"
           d="m 0,0 c -0.108,-0.31 -0.446,-0.477 -0.758,-0.369 -0.31,0.108 -0.476,0.447 -0.368,0.758 l 0.868,2.512 C -0.151,3.211 0.188,3.378 0.5,3.271 0.81,3.163 0.974,2.822 0.868,2.512 Z" />
      </g>
    </g>
  </g>
</svg>
