<svg id="Layer_1" data-name="Layer 1" xmlns="http://www.w3.org/2000/svg" xmlns:xlink="http://www.w3.org/1999/xlink" viewBox="0 0 1080 1080"><defs><style>.cls-1{fill:none;}.cls-2{fill:#e89a24;}.cls-3{clip-path:url(#clip-path);}.cls-4{fill:#ffc708;}.cls-5{fill:#49321d;}.cls-6{fill:#0e9347;}</style><clipPath id="clip-path"><path class="cls-1" d="M670.41,495.61a97,97,0,0,1-.42-15.73C665.1,338.19,552.9,334.77,552.9,334.77s-114.62,4.23-118.31,146c0,0,.73,12.76-4.29,37.76A117.47,117.47,0,0,1,401,575.19c-31.2,33.61-49.69,77.45-48.62,125.28,2.21,99.62,90.6,181,199.17,183.39,115.07,2.52,209.22-82.31,209.22-187.31,0-49-20.56-93.65-54.18-127C686,549.11,672.88,523.3,670.41,495.61Z"/></clipPath></defs><title>Pear</title><path class="cls-2" d="M670.41,495.61a97,97,0,0,1-.42-15.73C665.1,338.19,552.9,334.77,552.9,334.77s-114.62,4.23-118.31,146c0,0,.73,12.76-4.29,37.76A117.47,117.47,0,0,1,401,575.19c-31.2,33.61-49.69,77.45-48.62,125.28,2.21,99.62,90.6,181,199.17,183.39,115.07,2.52,209.22-82.31,209.22-187.31,0-49-20.56-93.65-54.18-127C686,549.11,672.88,523.3,670.41,495.61Z"/><g class="cls-3"><path class="cls-4" d="M727,495.61a95.55,95.55,0,0,1-.42-15.73c-4.9-141.69-117.09-145.11-117.09-145.11s-114.62,4.23-118.32,146c0,0,.74,12.76-4.28,37.76a117.49,117.49,0,0,1-29.34,56.71C426.38,608.8,407.89,652.64,409,700.47c2.22,99.62,90.6,181,199.18,183.39,115.07,2.52,209.22-82.31,209.22-187.31,0-49-20.56-93.65-54.18-127C742.62,549.11,729.49,523.3,727,495.61Z"/></g><path class="cls-5" d="M670.41,495.61l8.55-.76c-.42-4.74-.53-8.3-.53-10.68,0-1.28,0-2.22.06-2.8,0-.29,0-.5,0-.61v-.1l-2.71-.23,2.71.26v0l-2.71-.23,2.71.26.05-.55v-.55c-1.26-36.54-9.49-64.75-21.43-86.31a129.84,129.84,0,0,0-31.37-37.9,132.94,132.94,0,0,0-48.85-25.07,110.58,110.58,0,0,0-23.75-4.11h-.58a108.66,108.66,0,0,0-19.67,3.11,140.82,140.82,0,0,0-30.85,11.41,129.09,129.09,0,0,0-50.27,45.44c-14.52,22.51-24.73,53.2-25.79,94.34v.36l0,.35h0q0,.19,0,1.47c0,3.89-.39,15.33-4.16,34.11a108.89,108.89,0,0,1-27.21,52.56c-31.69,34.12-51,78.61-51,127.2,0,1.37,0,2.74,0,4.12,1.16,52.32,25,99.78,62.47,134.27s88.7,56.25,145.09,57.5c1.74,0,3.47,0,5.19,0,58.53,0,111.65-21.76,150.21-57.13s62.6-84.5,62.59-138.81c0-51.47-21.62-98.31-56.71-133.13-19.29-19.16-31.39-43.12-33.65-68.57l-8.55.76-8.54.76c2.66,29.93,16.84,57.59,38.65,79.23,32.15,32,51.63,74.35,51.64,120.95,0,49.17-21.67,93.69-57,126.16s-84.35,52.62-138.61,52.62c-1.6,0-3.21,0-4.81-.05-52.19-1.14-99.44-21.28-133.85-53s-55.88-74.75-56.94-122c0-1.25,0-2.49,0-3.73,0-44,17.37-84.25,46.37-115.52a126,126,0,0,0,31.46-60.86c4-19.88,4.5-32.47,4.49-37.49,0-1.47,0-2.28-.05-2.45l-8.56.49,8.57.23c.91-34.29,8.46-59.67,19-78.66a112.77,112.77,0,0,1,27.52-33.13A119.24,119.24,0,0,1,533,347a114.66,114.66,0,0,1,14.89-3.11c1.79-.25,3.18-.39,4.1-.47l1-.07h.24l-.16-3.74.14,3.74h0l-.16-3.74.14,3.74-.32-8.58-.26,8.58,0-.47,0,.47h0l0-.47,0,.47a92,92,0,0,1,17.28,2.86,119.52,119.52,0,0,1,26.49,10.17,110.52,110.52,0,0,1,42.24,39.32c12.24,19.48,21.44,46.49,22.77,84.48l8.57-.3-8.54-.81c0,.27-.18,2-.18,5.1,0,2.88.13,7,.6,12.2Z"/><path class="cls-5" d="M413.5,654.73c-7.05,16-10.1,31.25-10.1,45.29a97.91,97.91,0,0,0,8,38.49,120.75,120.75,0,0,0,18.63,30,133.26,133.26,0,0,0,83.56,46.3,8.58,8.58,0,1,0,2.45-17,116.07,116.07,0,0,1-72.84-40.31,103.65,103.65,0,0,1-16-25.69A80.59,80.59,0,0,1,420.56,700c0-11.57,2.47-24.3,8.66-38.39a8.58,8.58,0,0,0-15.72-6.9Z"/><path class="cls-5" d="M462.07,454.19c-6.89,17.66-11.34,39.3-12,65.74a8.58,8.58,0,0,0,17.15.41c.59-24.75,4.73-44.35,10.8-59.91a8.58,8.58,0,1,0-16-6.24Z"/><path class="cls-5" d="M565,389.55a477,477,0,0,0,5-68.45c0-18.58-1.17-39-4.76-58.72s-9.57-38.81-19.62-54.69a8.58,8.58,0,1,0-14.49,9.19C539.42,230,545,247.13,548.3,265.46s4.48,37.8,4.48,55.64c0,18.21-1.19,34.72-2.38,46.62-.59,6-1.18,10.76-1.63,14.06-.22,1.65-.4,2.93-.53,3.78-.06.43-.11.75-.14,1l0,.23v.06A8.58,8.58,0,0,0,565,389.55Z"/><path class="cls-5" d="M513.65,384.87a92,92,0,0,0,14.27,9c8.54,4.37,20.24,9,33.44,9a48.78,48.78,0,0,0,20.34-4.29,52.91,52.91,0,0,0,19-14.95,8.58,8.58,0,0,0-13.27-10.89,35.71,35.71,0,0,1-12.8,10.22,31.53,31.53,0,0,1-13.24,2.75c-9,0-18.51-3.42-25.58-7.1a85.41,85.41,0,0,1-8.48-5c-1-.68-1.77-1.24-2.27-1.61l-.55-.41-.11-.09h0a8.58,8.58,0,0,0-10.72,13.4Z"/><path class="cls-6" d="M688.63,190.09V218a99.38,99.38,0,0,1-99.38,99.39H561.36V289.47a99.39,99.39,0,0,1,99.39-99.38Z"/><path class="cls-5" d="M688.63,190.09h-8.58V218a90.82,90.82,0,0,1-90.8,90.81H569.94V289.47a90.82,90.82,0,0,1,90.81-90.8h27.88v-8.58h0v-8.58H660.75a108,108,0,0,0-108,108v36.47h36.47a108,108,0,0,0,108-108V181.51h-8.58Z"/></svg>