<?xml version="1.0" encoding="UTF-8" standalone="no"?>
<!-- Created with Inkscape (http://www.inkscape.org/) -->

<svg
   xmlns:dc="http://purl.org/dc/elements/1.1/"
   xmlns:cc="http://creativecommons.org/ns#"
   xmlns:rdf="http://www.w3.org/1999/02/22-rdf-syntax-ns#"
   xmlns:svg="http://www.w3.org/2000/svg"
   xmlns="http://www.w3.org/2000/svg"
   xmlns:sodipodi="http://sodipodi.sourceforge.net/DTD/sodipodi-0.dtd"
   xmlns:inkscape="http://www.inkscape.org/namespaces/inkscape"
   width="6.2699022mm"
   height="9.2158928mm"
   viewBox="0 0 6.2699027 9.2158917"
   version="1.1"
   id="svg5889"
   inkscape:version="0.92.3 (2405546, 2018-03-11)"
   sodipodi:docname="pear-fruit.svg">
  <defs
     id="defs5883" />
  <sodipodi:namedview
     id="base"
     pagecolor="#ffffff"
     bordercolor="#666666"
     borderopacity="1.0"
     inkscape:pageopacity="0.0"
     inkscape:pageshadow="2"
     inkscape:zoom="3.06"
     inkscape:cx="85.452474"
     inkscape:cy="10.390538"
     inkscape:document-units="mm"
     inkscape:current-layer="layer1"
     showgrid="false"
     fit-margin-top="1"
     fit-margin-bottom="1"
     fit-margin-right="1"
     fit-margin-left="1"
     inkscape:window-width="1853"
     inkscape:window-height="1025"
     inkscape:window-x="67"
     inkscape:window-y="27"
     inkscape:window-maximized="1" />
  <metadata
     id="metadata5886">
    <rdf:RDF>
      <cc:Work
         rdf:about="">
        <dc:format>image/svg+xml</dc:format>
        <dc:type
           rdf:resource="http://purl.org/dc/dcmitype/StillImage" />
        <dc:title></dc:title>
      </cc:Work>
    </rdf:RDF>
  </metadata>
  <g
     inkscape:label="Capa 1"
     inkscape:groupmode="layer"
     id="layer1"
     transform="translate(-83.224035,-114.99592)">
    <g
       transform="matrix(0.35277777,0,0,-0.35277777,70.459048,210.31966)"
       id="g9057">
      <g
         transform="translate(41.4863,264.5562)"
         id="g2796">
        <path
           inkscape:connector-curvature="0"
           id="path2798"
           style="fill:#71a241;fill-opacity:1;fill-rule:nonzero;stroke:none"
           d="m 0,0 c 1.822,-0.726 2.813,-0.372 3.207,-0.139 l 0.441,-0.176 0.08,0.198 -6.195,2.47 C -2.467,2.353 -2.561,1.022 0,0" />
      </g>
      <g
         transform="translate(39.019,266.9092)"
         id="g2800">
        <path
           inkscape:connector-curvature="0"
           id="path2802"
           style="fill:#90c03e;fill-opacity:1;fill-rule:nonzero;stroke:none"
           d="m 0,0 6.195,-2.47 0.079,0.199 -0.46,0.183 C 5.661,-1.637 5.143,-0.682 3.409,0.01 0.829,1.04 0,0 0,0" />
      </g>
      <g
         transform="translate(45.812,246.9199)"
         id="g2804">
        <path
           inkscape:connector-curvature="0"
           id="path2806"
           style="fill:#e86624;fill-opacity:1;fill-rule:nonzero;stroke:none"
           d="M 0,0 C -0.059,0 -0.114,0.004 -0.171,0.006 -0.228,0.004 -0.284,0 -0.342,0 Z" />
      </g>
      <g
         transform="translate(50.5142,254.8672)"
         id="g2808">
        <path
           inkscape:connector-curvature="0"
           id="path2810"
           style="fill:#80b24e;fill-opacity:1;fill-rule:nonzero;stroke:none"
           d="m 0,0 c -0.938,1.781 -1.733,2.581 -1.668,5.56 0.066,2.978 -2.316,3.045 -2.316,3.045 0,0 -0.375,0.113 -1.145,0.067 0.3,-0.023 0.448,-0.067 0.448,-0.067 0,0 2.383,-0.067 2.317,-3.045 C -2.43,2.581 -1.635,1.781 -0.697,0 0.217,-1.734 0.964,-7.607 -5.221,-7.931 -5.107,-7.937 -4.991,-7.94 -4.873,-7.941 1.689,-7.827 0.93,-1.767 0,0" />
      </g>
      <g
         transform="translate(45.1147,246.9199)"
         id="g2812">
        <path
           inkscape:connector-curvature="0"
           id="path2814"
           style="fill:#e86624;fill-opacity:1;fill-rule:nonzero;stroke:none"
           d="M 0,0 C -0.058,0 -0.114,0.004 -0.17,0.006 -0.227,0.004 -0.283,0 -0.341,0 Z" />
      </g>
      <g
         transform="translate(49.8169,254.8672)"
         id="g2816">
        <path
           inkscape:connector-curvature="0"
           id="path2818"
           style="fill:#88c24c;fill-opacity:1;fill-rule:nonzero;stroke:none"
           d="m 0,0 c -0.937,1.781 -1.733,2.581 -1.667,5.56 0.066,2.978 -2.316,3.045 -2.316,3.045 0,0 -0.149,0.044 -0.449,0.067 C -4.62,8.66 -4.831,8.64 -5.065,8.605 c 0,0 -2.382,-0.067 -2.316,-3.045 C -7.315,2.581 -8.11,1.781 -9.049,0 -9.962,-1.734 -10.71,-7.607 -4.524,-7.931 1.662,-7.607 0.914,-1.734 0,0" />
      </g>
      <g
         transform="translate(44.915,263.4946)"
         id="g2820">
        <path
           inkscape:connector-curvature="0"
           id="path2822"
           style="fill:#a4703e;fill-opacity:1;fill-rule:nonzero;stroke:none"
           d="m 0,0 c 0,0 0.17,2.868 2.007,3.367 0,0 0.42,-0.184 0.236,-0.788 0,0 -1.486,-0.356 -1.688,-2.579 0,0 -0.253,-0.454 -0.555,0" />
      </g>
      <g
         transform="translate(44.6577,261.1616)"
         id="g2824">
        <path
           inkscape:connector-curvature="0"
           id="path2826"
           style="fill:#b8d57b;fill-opacity:1;fill-rule:nonzero;stroke:none"
           d="m 0,0 c -0.165,-0.706 -0.661,-1.193 -1.111,-1.088 -0.45,0.105 -0.681,0.761 -0.516,1.467 0.163,0.706 0.661,1.193 1.111,1.089 C -0.067,1.363 0.165,0.706 0,0" />
      </g>
    </g>
  </g>
</svg>
